<?xml version="1.0" encoding="utf-8"?>
<!-- Generator: Adobe Illustrator 19.0.0, SVG Export Plug-In . SVG Version: 6.00 Build 0)  -->
<svg xmlns="http://www.w3.org/2000/svg" xmlns:xlink="http://www.w3.org/1999/xlink" version="1.1" id="Layer_1" x="0px" y="0px" viewBox="0 2 98 98" style="enable-background:new 0 2 98 98;" xml:space="preserve" width="512" height="512">
<style type="text/css">
	.st0{fill:url(#SVGID_1_);}
	.st1{fill:url(#SVGID_2_);}
	.st2{fill:url(#SVGID_3_);}
	.st3{fill:url(#SVGID_4_);}
	.st4{fill:url(#SVGID_5_);}
	.st5{fill:url(#SVGID_6_);}
	.st6{fill:url(#SVGID_7_);}
</style>
<g>
	
		<linearGradient id="SVGID_1_" gradientUnits="userSpaceOnUse" x1="49" y1="98" x2="49" y2="6.317" gradientTransform="matrix(1 0 0 -1 0 104)">
		<stop offset="0" style="stop-color:#00EFD1"/>
		<stop offset="1" style="stop-color:#00ACEA"/>
	</linearGradient>
	<path class="st0" d="M49,22.5c-15.9,0-28.9,13-28.9,28.9c0,10.7,5.9,20.4,15.2,25.4v9.6c0,1.7,1.3,3,3,3h21.4c1.7,0,3-1.3,3-3v-9.6   c9.3-5,15.2-14.8,15.2-25.4C77.9,35.5,64.9,22.5,49,22.5z M58.4,72.3c-1.1,0.5-1.7,1.6-1.7,2.7v8.4H41.3v-8.5   c0-1.2-0.7-2.3-1.8-2.7c-8.2-3.6-13.4-11.8-13.4-20.8c0-12.6,10.3-22.9,22.9-22.9s22.9,10.3,22.9,22.9   C71.9,60.3,66.6,68.5,58.4,72.3z"/>
	
		<linearGradient id="SVGID_2_" gradientUnits="userSpaceOnUse" x1="49" y1="98" x2="49" y2="6.317" gradientTransform="matrix(1 0 0 -1 0 104)">
		<stop offset="0" style="stop-color:#00EFD1"/>
		<stop offset="1" style="stop-color:#00ACEA"/>
	</linearGradient>
	<path class="st1" d="M57.7,92H40.3c-1.7,0-3,1.3-3,3s1.3,3,3,3h17.4c1.7,0,3-1.3,3-3S59.4,92,57.7,92z"/>
	
		<linearGradient id="SVGID_3_" gradientUnits="userSpaceOnUse" x1="49" y1="98" x2="49" y2="6.317" gradientTransform="matrix(1 0 0 -1 0 104)">
		<stop offset="0" style="stop-color:#00EFD1"/>
		<stop offset="1" style="stop-color:#00ACEA"/>
	</linearGradient>
	<rect x="46" y="4" class="st2" width="6" height="12.5"/>
	
		<linearGradient id="SVGID_4_" gradientUnits="userSpaceOnUse" x1="8.55" y1="98" x2="8.55" y2="6.317" gradientTransform="matrix(1 0 0 -1 0 104)">
		<stop offset="0" style="stop-color:#00EFD1"/>
		<stop offset="1" style="stop-color:#00ACEA"/>
	</linearGradient>
	<rect x="2.3" y="47.7" class="st3" width="12.5" height="6"/>
	
		<linearGradient id="SVGID_5_" gradientUnits="userSpaceOnUse" x1="89.45" y1="98" x2="89.45" y2="6.317" gradientTransform="matrix(1 0 0 -1 0 104)">
		<stop offset="0" style="stop-color:#00EFD1"/>
		<stop offset="1" style="stop-color:#00ACEA"/>
	</linearGradient>
	<rect x="83.2" y="47.7" class="st4" width="12.5" height="6"/>
	
		<linearGradient id="SVGID_6_" gradientUnits="userSpaceOnUse" x1="20.45" y1="98" x2="20.45" y2="6.317" gradientTransform="matrix(1 0 0 -1 0 104)">
		<stop offset="0" style="stop-color:#00EFD1"/>
		<stop offset="1" style="stop-color:#00ACEA"/>
	</linearGradient>
	<polygon class="st5" points="27,24.4 18.1,15.6 13.9,19.8 22.8,28.6  "/>
	
		<linearGradient id="SVGID_7_" gradientUnits="userSpaceOnUse" x1="77.55" y1="98" x2="77.55" y2="6.317" gradientTransform="matrix(1 0 0 -1 0 104)">
		<stop offset="0" style="stop-color:#00EFD1"/>
		<stop offset="1" style="stop-color:#00ACEA"/>
	</linearGradient>
	<polygon class="st6" points="84.1,19.8 79.9,15.6 71,24.4 75.2,28.6  "/>
</g>
</svg>
