<?xml version="1.0" encoding="utf-8"?>
<!-- Generator: Adobe Illustrator 19.0.0, SVG Export Plug-In . SVG Version: 6.00 Build 0)  -->
<svg xmlns="http://www.w3.org/2000/svg" xmlns:xlink="http://www.w3.org/1999/xlink" version="1.1" id="Layer_1" x="0px" y="0px" viewBox="0 2 98 98" style="enable-background:new 0 2 98 98;" xml:space="preserve" width="512" height="512">
<style type="text/css">
	.st0{fill:url(#SVGID_1_);}
	.st1{fill:url(#SVGID_2_);}
	.st2{fill:url(#SVGID_3_);}
	.st3{fill:url(#SVGID_4_);}
	.st4{fill:url(#SVGID_5_);}
	.st5{fill:url(#SVGID_6_);}
</style>
<g>
	
		<linearGradient id="SVGID_1_" gradientUnits="userSpaceOnUse" x1="49" y1="100.3333" x2="49" y2="5.0297" gradientTransform="matrix(1 0 0 -1 0 104)">
		<stop offset="0" style="stop-color:#00EFD1"/>
		<stop offset="1" style="stop-color:#00ACEA"/>
	</linearGradient>
	<path class="st0" d="M91.8,92.2h-5.9c-0.1-6.6-5.5-11.9-12.1-11.9c-4.9,0-9.2,2.9-11.1,7.3c-3,0.5-5.7,2.2-7.6,4.6h-9.4   c-1.7-2.6-4.6-4.3-7.7-4.4c-1.5-4-5.4-6.8-9.8-6.8c-3.1,0-6,1.4-8,3.6c-0.5-0.1-1.1-0.1-1.6-0.1c-4.9,0-9.1,3.2-10.5,7.7H6.2   c-1.7,0-3,1.3-3,3s1.3,3,3,3h85.6c1.7,0,3-1.3,3-3C94.8,93.5,93.5,92.2,91.8,92.2z M14.8,92.2c0.9-1,2.2-1.7,3.7-1.7   c0.6,0,1.2,0.1,1.7,0.3c1.5,0.7,3.2,0,3.9-1.4c0.7-1.5,2.3-2.4,4-2.4c2.4,0,4.4,1.9,4.5,4.2c0,0.3,0.1,0.6,0.2,1H14.8z M67.3,92.2   c0.2-0.3,0.4-0.7,0.5-1.2c0.6-2.7,3.1-4.7,6-4.7c3.4,0,6,2.6,6.1,5.9C79.9,92.2,67.3,92.2,67.3,92.2z"/>
	
		<linearGradient id="SVGID_2_" gradientUnits="userSpaceOnUse" x1="49" y1="100.3333" x2="49" y2="5.0297" gradientTransform="matrix(1 0 0 -1 0 104)">
		<stop offset="0" style="stop-color:#00EFD1"/>
		<stop offset="1" style="stop-color:#00ACEA"/>
	</linearGradient>
	<path class="st1" d="M49,43.5c5,0,9-4,9-9s-4-9-9-9s-9,4-9,9S44,43.5,49,43.5z M49,31.5c1.7,0,3,1.3,3,3s-1.3,3-3,3s-3-1.3-3-3   S47.3,31.5,49,31.5z"/>
	
		<linearGradient id="SVGID_3_" gradientUnits="userSpaceOnUse" x1="49" y1="100.3333" x2="49" y2="5.0297" gradientTransform="matrix(1 0 0 -1 0 104)">
		<stop offset="0" style="stop-color:#00EFD1"/>
		<stop offset="1" style="stop-color:#00ACEA"/>
	</linearGradient>
	<path class="st2" d="M27,64.8c0.7,0,1.4-0.3,2-0.8l6.2-5.7c1.3,3.4,3,6.6,5.1,9.7c1.8,2.6,5.9,3.5,9.2,3.5h0.1c2.1,0,5.9-0.4,7.7-3   c2.2-3.3,4-6.7,5.4-10.2l6.2,5.7c0.6,0.5,1.3,0.8,2,0.8c0.8,0,1.6-0.3,2.2-1c2.9-3.1,4.4-7.3,4.2-11.5c-0.2-4.3-2-8.2-5.2-11.1   c-1.4-1.2-3.4-2.8-5.8-3.8c-0.5-12.1-5.6-23.2-15.1-32.7c-0.6-0.6-1.3-0.9-2.1-0.9S47.5,4.1,47,4.7c-9.4,9.5-14.6,20.6-15.1,32.7   c-2.5,0.9-4.5,2.6-6,3.8c-3.2,2.9-5,6.8-5.2,11.1s1.3,8.4,4.2,11.5C25.4,64.5,26.2,64.8,27,64.8z M65.3,49.3   c0.3-1.8,0.6-3.5,0.7-5.2c0.6,0.4,1.3,1,2,1.6c2.1,1.7,3.2,4.2,3.3,6.9c0.1,1.7-0.3,3.3-0.9,4.7l-5.7-5.2   C64.9,51.2,65.1,50.2,65.3,49.3z M52.3,65.2c-1.2,0.7-6,0.4-7.1-0.5c-1.5-2.3-2.8-4.6-3.8-7c2.5,0.8,5.1,1.2,7.6,1.2s5-0.4,7.4-1.1   C55.3,60.4,53.9,62.8,52.3,65.2z M49,11.2c1,1.1,1.9,2.2,2.8,3.4c-1.8,0.5-3.7,0.5-5.5,0C47.1,13.4,48,12.3,49,11.2z M42.9,19.8   c1.9,0.8,4,1.2,6.1,1.2s4.2-0.4,6.2-1.2c4.8,8.6,6.3,18.3,4.3,28.4c-0.1,0.6-0.3,1.2-0.4,1.9c-6.2,3.7-14,3.7-20.2-0.1   c-0.1-0.5-0.2-1.1-0.3-1.6C36.6,38.2,38.1,28.5,42.9,19.8z M29.8,45.6c0.7-0.7,1.4-1.2,2.1-1.6c0.2,1.8,0.4,3.6,0.8,5.5   c0.2,0.9,0.4,1.8,0.6,2.6l-5.7,5.2c-0.7-1.5-1-3.1-0.9-4.7C26.7,49.9,27.8,47.4,29.8,45.6z"/>
	
		<linearGradient id="SVGID_4_" gradientUnits="userSpaceOnUse" x1="49" y1="100.3333" x2="49" y2="5.0297" gradientTransform="matrix(1 0 0 -1 0 104)">
		<stop offset="0" style="stop-color:#00EFD1"/>
		<stop offset="1" style="stop-color:#00ACEA"/>
	</linearGradient>
	<path class="st3" d="M46,77.1v6.7c0,1.7,1.3,3,3,3s3-1.3,3-3v-6.7c0-1.7-1.3-3-3-3S46,75.4,46,77.1z"/>
	
		<linearGradient id="SVGID_5_" gradientUnits="userSpaceOnUse" x1="57.2" y1="100.3333" x2="57.2" y2="5.0297" gradientTransform="matrix(1 0 0 -1 0 104)">
		<stop offset="0" style="stop-color:#00EFD1"/>
		<stop offset="1" style="stop-color:#00ACEA"/>
	</linearGradient>
	<path class="st4" d="M54.2,75.2V81c0,1.7,1.3,3,3,3s3-1.3,3-3v-5.8c0-1.7-1.3-3-3-3S54.2,73.5,54.2,75.2z"/>
	
		<linearGradient id="SVGID_6_" gradientUnits="userSpaceOnUse" x1="40.8" y1="100.3333" x2="40.8" y2="5.0297" gradientTransform="matrix(1 0 0 -1 0 104)">
		<stop offset="0" style="stop-color:#00EFD1"/>
		<stop offset="1" style="stop-color:#00ACEA"/>
	</linearGradient>
	<path class="st5" d="M37.8,75.2V80c0,1.7,1.3,3,3,3s3-1.3,3-3v-4.8c0-1.7-1.3-3-3-3S37.8,73.5,37.8,75.2z"/>
</g>
</svg>
