<?xml version="1.0" encoding="utf-8"?>
<!-- Generator: Adobe Illustrator 19.0.0, SVG Export Plug-In . SVG Version: 6.00 Build 0)  -->
<svg xmlns="http://www.w3.org/2000/svg" xmlns:xlink="http://www.w3.org/1999/xlink" version="1.1" id="Layer_1" x="0px" y="0px" viewBox="0 2 98 98" style="enable-background:new 0 2 98 98;" xml:space="preserve" width="512" height="512">
<style type="text/css">
	.st0{fill:url(#SVGID_1_);}
	.st1{fill:url(#SVGID_2_);}
	.st2{fill:url(#SVGID_3_);}
	.st3{fill:url(#SVGID_4_);}
	.st4{fill:url(#SVGID_5_);}
	.st5{fill:url(#SVGID_6_);}
	.st6{fill:url(#SVGID_7_);}
	.st7{fill:url(#SVGID_8_);}
	.st8{fill:url(#SVGID_9_);}
	.st9{fill:url(#SVGID_10_);}
</style>
<g>
	
		<linearGradient id="SVGID_1_" gradientUnits="userSpaceOnUse" x1="49" y1="-0.95" x2="49" y2="92.2028" gradientTransform="matrix(1 0 0 1 0 4)">
		<stop offset="0" style="stop-color:#00EFD1"/>
		<stop offset="1" style="stop-color:#00ACEA"/>
	</linearGradient>
	<path class="st0" d="M68.8,3H29c-5.1,0-9.2,4.1-9.2,9.2v77.5c0,5.1,4.1,9.2,9.2,9.2h39.8c5.1,0,9.2-4,9.3-9.2V12.2   C78.1,7.2,73.9,3,68.8,3z M29,9.1h39.9c1.7,0,3.2,1.5,3.2,3.2v6.2H25.7v-6.2C25.7,10.6,27.2,9.1,29,9.1z M72.1,24.5v51.7H25.7V24.5   H72.1z M68.8,93H29c-1.7,0-3.2-1.5-3.2-3.2v-7.6h46.3v7.5C72,91.5,70.5,93,68.8,93z"/>
	
		<linearGradient id="SVGID_2_" gradientUnits="userSpaceOnUse" x1="48.85" y1="-1" x2="48.85" y2="92.1528" gradientTransform="matrix(1 0 0 1 0 4)">
		<stop offset="0" style="stop-color:#00EFD1"/>
		<stop offset="1" style="stop-color:#00ACEA"/>
	</linearGradient>
	<polygon class="st1" points="48.8,44.8 42.4,57.5 55.2,57.5  "/>
	
		<linearGradient id="SVGID_3_" gradientUnits="userSpaceOnUse" x1="63.55" y1="-1" x2="63.55" y2="92.1528" gradientTransform="matrix(1 0 0 1 0 4)">
		<stop offset="0" style="stop-color:#00EFD1"/>
		<stop offset="1" style="stop-color:#00ACEA"/>
	</linearGradient>
	<rect x="57.1" y="44.8" class="st2" width="12.8" height="12.8"/>
	
		<linearGradient id="SVGID_4_" gradientUnits="userSpaceOnUse" x1="34.15" y1="-1" x2="34.15" y2="92.1528" gradientTransform="matrix(1 0 0 1 0 4)">
		<stop offset="0" style="stop-color:#00EFD1"/>
		<stop offset="1" style="stop-color:#00ACEA"/>
	</linearGradient>
	<rect x="27.7" y="44.8" class="st3" width="12.8" height="12.8"/>
	
		<linearGradient id="SVGID_5_" gradientUnits="userSpaceOnUse" x1="48.85" y1="-1" x2="48.85" y2="92.1528" gradientTransform="matrix(1 0 0 1 0 4)">
		<stop offset="0" style="stop-color:#00EFD1"/>
		<stop offset="1" style="stop-color:#00ACEA"/>
	</linearGradient>
	<rect x="42.4" y="29.8" class="st4" width="12.8" height="12.8"/>
	
		<linearGradient id="SVGID_6_" gradientUnits="userSpaceOnUse" x1="63.55" y1="-1" x2="63.55" y2="92.1528" gradientTransform="matrix(1 0 0 1 0 4)">
		<stop offset="0" style="stop-color:#00EFD1"/>
		<stop offset="1" style="stop-color:#00ACEA"/>
	</linearGradient>
	<path class="st5" d="M63.5,42.5c3.6,0,6.4-2.8,6.4-6.4c0-3.5-2.9-6.4-6.4-6.4s-6.4,2.9-6.4,6.4S60,42.5,63.5,42.5z"/>
	
		<linearGradient id="SVGID_7_" gradientUnits="userSpaceOnUse" x1="48.85" y1="-1" x2="48.85" y2="92.1528" gradientTransform="matrix(1 0 0 1 0 4)">
		<stop offset="0" style="stop-color:#00EFD1"/>
		<stop offset="1" style="stop-color:#00ACEA"/>
	</linearGradient>
	<rect x="42.4" y="59.8" class="st6" width="12.8" height="12.8"/>
	
		<linearGradient id="SVGID_8_" gradientUnits="userSpaceOnUse" x1="63.55" y1="-1" x2="63.55" y2="92.1528" gradientTransform="matrix(1 0 0 1 0 4)">
		<stop offset="0" style="stop-color:#00EFD1"/>
		<stop offset="1" style="stop-color:#00ACEA"/>
	</linearGradient>
	<path class="st7" d="M63.5,72.5c3.6,0,6.4-2.8,6.4-6.4c0-3.5-2.9-6.4-6.4-6.4s-6.4,2.9-6.4,6.4C57.1,69.6,60,72.5,63.5,72.5z"/>
	
		<linearGradient id="SVGID_9_" gradientUnits="userSpaceOnUse" x1="34.15" y1="-1" x2="34.15" y2="92.1528" gradientTransform="matrix(1 0 0 1 0 4)">
		<stop offset="0" style="stop-color:#00EFD1"/>
		<stop offset="1" style="stop-color:#00ACEA"/>
	</linearGradient>
	<path class="st8" d="M34.1,59.8c-3.5,0-6.4,2.9-6.4,6.4c0,3.5,2.9,6.4,6.4,6.4s6.4-2.8,6.4-6.4C40.5,62.7,37.6,59.8,34.1,59.8z"/>
	
		<linearGradient id="SVGID_10_" gradientUnits="userSpaceOnUse" x1="34.35" y1="-1" x2="34.35" y2="92.1528" gradientTransform="matrix(1 0 0 1 0 4)">
		<stop offset="0" style="stop-color:#00EFD1"/>
		<stop offset="1" style="stop-color:#00ACEA"/>
	</linearGradient>
	<polygon class="st9" points="34.3,29.6 27.9,42.4 40.8,42.4  "/>
</g>

</svg>
